<svg class="svg-icon" style="width: 1em;height: 1em;vertical-align: middle;fill: currentColor;overflow: hidden;" viewBox="0 0 1024 1024" version="1.1" xmlns="http://www.w3.org/2000/svg"><path d="M751.4 553.2c-42.5-38.5-92.1-67.1-145.5-84.6 53.2-38.9 87.8-101.8 87.8-172.7C693.7 178 597.7 82 479.8 82c-57.1 0-110.8 22.2-151.2 62.6C288.2 185 266 238.7 266 295.8s22.2 110.8 62.6 151.2c7.8 7.8 16.2 15 25 21.4-10.5 3.5-20.9 7.3-31.2 11.7-48.2 20.4-91.4 49.5-128.5 86.7s-66.3 80.4-86.7 128.5c-21.1 49.9-31.8 102.9-31.8 157.4 0 24.8 2.3 49.7 6.8 73.9l68.8-12.7c-3.7-20-5.6-40.6-5.6-61.2 0-184.4 150-334.4 334.4-334.4 83.2 0 163 30.8 224.5 86.6l47.1-51.7zM479.8 152c79.3 0 143.9 64.5 143.9 143.9s-64.5 143.9-143.9 143.9S336 375.2 336 295.9 400.5 152 479.8 152zM726.3 665.3h213.8v70H726.3zM503 831.6h437.1v70H503z"  /></svg>