<svg width="661" height="661" xmlns="http://www.w3.org/2000/svg" xmlns:xlink="http://www.w3.org/1999/xlink" xml:space="preserve" overflow="hidden"><defs><clipPath id="clip0"><rect x="294" y="29" width="661" height="661"/></clipPath></defs><g clip-path="url(#clip0)" transform="translate(-294 -29)"><path d="M508.715 382.415C480.377 391.971 453.822 406.164 430.132 424.416 414.044 436.98 404.501 456.143 404.167 476.552L404.167 597.529 410.295 601.619C424.603 611.155 449.328 618.646 479.906 624.134L479.906 579.833 610.729 579.833 610.729 635.24C615.948 635.318 621.174 635.359 626.407 635.364 630.366 635.364 634.319 635.316 638.271 635.275L638.271 579.833 769.094 579.833 769.094 624.63C800.836 619.011 825.94 611.196 839.325 601.178L844.833 597.047 844.833 476.263C844.467 456.049 835.029 437.07 819.13 424.581 795.455 406.317 768.917 392.104 740.595 382.518L697.664 365.304C695.07 364.259 693.367 361.747 693.354 358.949L693.354 342.094C719.459 321.234 734.66 289.634 734.667 256.219L734.667 208.021 741.552 208.021C749.158 208.021 755.323 201.856 755.323 194.25 755.323 186.644 749.158 180.479 741.552 180.479L734.667 180.479C732.269 142.456 710.396 108.37 676.829 90.3491L665.812 133.934C665.036 137.082 662.168 139.261 658.927 139.167L657.275 139.167C653.552 138.388 651.166 134.739 651.945 131.018 651.945 131.016 651.945 131.016 651.945 131.014 651.945 130.884 652.007 130.76 652.042 130.629L665.124 79.057C662.829 69.9088 654.629 63.4769 645.198 63.4271L603.885 63.4271C594.438 63.4581 586.216 69.8939 583.917 79.057L597 130.629C597.997 134.292 595.841 138.071 592.18 139.077L591.767 139.167 590.114 139.167C586.873 139.261 584.005 137.082 583.229 133.934L572.556 90.3491C538.989 108.37 517.116 142.456 514.719 180.479L507.489 180.479C499.884 180.479 493.718 186.644 493.718 194.25 493.718 201.856 499.884 208.021 507.489 208.021L514.375 208.021 514.375 256.219C514.384 289.609 529.566 321.186 555.639 342.045L555.639 358.949C555.651 361.732 553.976 364.243 551.404 365.304ZM541.875 256.219 541.875 208.021 707.125 208.021 707.125 256.219C707.125 301.851 670.132 338.844 624.5 338.844 578.868 338.844 541.875 301.851 541.875 256.219ZM610.729 552.292 482.096 552.292 503.702 414.425 561.795 390.801C562.208 390.629 562.573 390.395 562.979 390.209L610.764 504.094ZM624.5 393.927C605.992 394.11 587.565 391.46 569.857 386.071 578.263 379.584 583.187 369.567 583.188 358.949L583.188 358.261C609.678 369.084 639.357 369.084 665.847 358.261L665.847 358.949C665.836 369.616 670.804 379.677 679.28 386.153 661.519 391.503 643.049 394.124 624.5 393.927ZM638.271 552.292 638.271 504.094 686.042 390.243C686.448 390.429 686.82 390.67 687.24 390.842L745.766 414.253 767.028 552.292Z" fill="#A79A66"/></g></svg>