<svg class="svg-icon" style="width: 1em; height: 1em;vertical-align: middle;fill: currentColor;overflow: hidden;" viewBox="0 0 1024 1024" version="1.1" xmlns="http://www.w3.org/2000/svg"><path d="M959.568037 911.929552c-0.503467-188.156334-116.13809-349.186867-280.028764-416.095743 48.937572-45.574988 79.565127-110.630656 79.565127-182.859701 0-137.829112-111.508653-249.563916-249.061472-249.563916-50.189076 0-96.900957 14.874779-136.00865 40.456411-9.002025-4.589528-19.22076-7.181563-30.02585-7.181563-36.688597 0-66.420759 29.798676-66.420759 66.550719 0 13.323447 3.89982 25.727964 10.626012 36.134988-17.417695 34.08019-27.230178 72.692602-27.230178 113.604384 0 72.229045 30.610158 137.284713 79.564104 182.859701C176.656931 562.742684 61.022307 723.773218 60.51884 911.929552l1.234107 0c-0.909719 2.600221-1.413186 5.402033-1.413186 8.318456 0 13.877055 11.178597 24.957415 24.971741 24.957415l848.487637 0c13.9405 0 24.971741-11.17041 24.971741-24.957415 0-2.923586-0.503467-5.718235-1.413186-8.318456L959.568037 911.929552zM110.821503 895.291616c7.570419-173.59878 125.399011-318.493821 285.001009-366.04379 0.324388 0.008186 0.649799 0.016373 0.974188 0.016373 13.794168 0 29.570479-6.563486 29.570479-24.956392 0-17.677615-17.369599-24.022113-30.919197-27.807323 0-0.097214 0.031722-0.195451 0.031722-0.292666-51.212382-36.143175-84.650959-95.780437-84.650959-163.232688 0-43.568285 13.956873-83.878362 37.629016-116.698862-12.103666-1.689479-21.430078-12.112875-21.430078-24.721031 0-13.785981 11.146874-24.956392 24.908296-24.956392 11.617595 0 21.381983 7.969509 24.127514 18.750039 35.468816-32.317033 82.652442-52.024887 134.416386-52.024887 110.25715 0 199.651133 89.38682 199.651133 199.651133 0 67.606771-33.600259 127.365806-85.024465 163.484422 0.032746 0.195451 0.064468 0.38988 0.098237 0.585331-13.599739 3.062755-32.463366 6.620791-32.463366 27.263947 0 21.691021 17.304108 24.826432 30.951943 24.956392 159.584602 47.558156 277.380448 192.44501 284.951891 366.027417L110.821503 895.29264z"  /></svg>